<svg height="512" viewBox="0 0 60 60" width="512" xmlns="http://www.w3.org/2000/svg"><g id="Page-1" fill="none" fill-rule="evenodd"><g id="037---Evil" fill="rgb(0,0,0)" fill-rule="nonzero"><path id="Shape" d="m42.851 20.014c.5096818-.492009.8934855-1.0994409 1.119-1.771.1294247-.5238995-.1845749-1.0549414-.706-1.194-.5265946-.138735-1.068744.163244-1.228.684-.01.033-1.091 3.267-9.036 3.267-.3985369-.0022976-.7599145.2336682-.9180909.5994785-.1581765.3658104-.082566.7907299.1920909 1.0795215-.8350381 1.2861597-1.2777055 2.7875458-1.274 4.321-.0127445 3.9071424 2.7986624 7.2519132 6.6497775 7.9113349s7.6151759-1.5594399 8.9030751-5.2482392c1.2878992-3.6887992-.2771779-7.7682642-3.7018526-9.6490957zm-3.851 12.986c-3.3123376-.0033074-5.9966926-2.6876624-6-6-.0056268-1.5016797.5615691-2.948995 1.586-4.047 2.2365546-.0449768 4.435317-.5852753 6.438-1.582 2.7451281.9805333 4.385576 3.7951222 3.8857428 6.6669406-.4998332 2.8718183-2.9947552 4.9666559-5.9097428 4.9620594z"/><path id="Shape" d="m39 24c-1.6568542 0-3 1.3431458-3 3s1.3431458 3 3 3 3-1.3431458 3-3-1.3431458-3-3-3zm0 4c-.5522847 0-1-.4477153-1-1s.4477153-1 1-1 1 .4477153 1 1-.4477153 1-1 1z"/><path id="Shape" d="m29 27c.0037055-1.5334542-.4389619-3.0348403-1.274-4.321.2746569-.2887916.3502674-.7137111.1920909-1.0795215-.1581764-.3658103-.519554-.6017761-.9180909-.5994785-7.853 0-9-3.159-9.035-3.264-.1400042-.5343355-.6866645-.8540042-1.221-.714s-.8540042.6866645-.714 1.221c.2255145.6715591.6093182 1.278991 1.119 1.771-3.4126989 1.8836431-4.9680711 5.9549367-3.6805935 9.6342066 1.2874776 3.6792698 5.0419753 5.8924941 8.8845486 5.2373181 3.8425733-.6551761 6.6515303-3.9874989 6.6470449-7.8855247zm-14 0c.0101978-2.5256067 1.5991041-4.775092 3.976-5.629 2.002683.9967247 4.2014454 1.5370232 6.438 1.582 1.0244309 1.098005 1.5916268 2.5453203 1.586 4.047-.0000001 3.3137084-2.6862916 5.9999999-6 5.9999999s-5.9999999-2.6862915-6-5.9999999z"/><path id="Shape" d="m24 27c0-1.6568542-1.3431458-3-3-3s-3 1.3431458-3 3 1.3431458 3 3 3 3-1.3431458 3-3zm-4 0c0-.5522847.4477153-1 1-1s1 .4477153 1 1-.4477153 1-1 1-1-.4477153-1-1z"/><path id="Shape" d="m33.318 48.269c-.008.007-.874.731-3.318.731-2.374 0-3.259-.683-3.315-.729-.3973315-.3792316-1.0261618-.3670116-1.4084598.0273705-.3822979.394382-.3749492 1.0232882.0164598 1.4086295.216.216 1.457 1.293 4.707 1.293s4.491-1.077 4.707-1.293c.376705-.3790362.3820322-.9894468.012-1.375-.375083-.3921152-.9922368-.4198673-1.401-.063z"/><path id="Shape" d="m41 37h-22c-.5522847 0-1 .4477153-1 1 0 .08.1 8 9 8h6c8.9 0 9-7.92 9-8 0-.5522847-.4477153-1-1-1zm-17.545 6.331.39-.78c.1779328-.3547704.5488336-.5707359.9452011-.5503649s.7431738.2732224.8837989.6443649l.5 1.322c-.9364425-.0521286-1.8565924-.2673604-2.719-.636zm10.376.636.495-1.322c.1406251-.3711425.4874314-.6239939.8837989-.6443649s.7672683.1955945.9452011.5503649l.39.78c-.8608435.3680747-1.7792526.5832951-2.714.636zm4.393-1.751-.28-.559c-.5335238-1.0665749-1.6481296-1.715854-2.8390879-1.6538226-1.1909584.0620313-2.2320803.8235919-2.6519121 1.9398226l-.77 2.057h-3.366l-.77-2.057c-.4198318-1.1162307-1.4609537-1.8777913-2.6519121-1.9398226-1.1909583-.0620314-2.3055641.5872477-2.8390879 1.6538226l-.28.559c-.8732828-.8753851-1.456291-1.9981124-1.67-3.216h19.788c-.213709 1.2178876-.7967172 2.3406149-1.67 3.216z"/><path id="Shape" d="m32.242 11.97c2.1007955-.5172775 4.3199899-.2087379 6.2.862.3069545.206403.7027745.2265054 1.0290607.0522627s.5297385-.5143673.5289393-.8842627c0-4.667-3.533-5.9-3.684-5.949-.5246705-.17452198-1.091478.10932949-1.266.634s.1093295 1.09147802.634 1.266c1.0113166.43933208 1.7721817 1.30920674 2.073 2.37-1.9281989-.68357877-4.0150283-.78409439-6-.289-.3539356.0796449-.636976.3447323-.7396106.6926975-.1026346.3479653-.0087636.7242251.2452935.9832013.2540571.2589763.6284478.3600447.9783171.2641012z"/><path id="Shape" d="m20.526 12.878c.3237314.17507.7174622.1581683 1.025-.044 1.8819768-1.0723481 4.1037051-1.3816075 6.207-.864.3498693.0959435.72426-.0051249.9783171-.2641012.2540571-.2589762.3479281-.635236.2452935-.9832013-.1026346-.3479652-.385675-.6130526-.7396106-.6926975-1.9849442-.49470218-4.0715636-.39454445-6 .288.3044041-1.06124284 1.0668185-1.93110673 2.079-2.372.3385091-.11432499.5903128-.40055811.6605591-.75087813.0702462-.35032001-.0517371-.71150497-.32-.9475s-.64205-.31094686-.9805591-.19662187c-.148.049-3.681 1.282-3.681 5.949.0009273.3670171.2028307.7040345.526.878z"/><path id="Shape" d="m56.773 29.467c.6323166.4380322 1.4598147.4746078 2.1283122.0940719.6684974-.3805359 1.0595138-1.1107394 1.0056878-1.8780719-.311103-4.1433006-1.4935607-8.1742205-3.47-11.829 2.5-4.768 1.288-10.667.466-13.449-.2061759-.76385258-.8641236-1.31999085-1.6516454-1.39607347-.7875219-.07608262-1.5397647.34381691-1.8883546 1.05407347-.9472063 1.96334299-2.3827162 3.65055778-4.169 4.9-11.116681-9.28930218-27.2905796-9.28298425-38.4.015-1.79797782-1.24977648-3.24264271-2.94279697-4.194-4.915-.34644903-.71333477-1.09949771-1.13647367-1.88895195-1.06140424-.78945425.07506944-1.44925491.6325566-1.65504805 1.39840424-.824 2.789-2.038 8.71.485 13.484-1.96367999 3.6449004-3.13814086 7.6623266-3.447 11.791-.0681737.7712095.32355232 1.5103965 1 1.887.66072765.3895534 1.48797045.3579017 2.117-.081l.088-.059c.141-.094.287-.193.451-.287-1.65291373 2.7249492-2.39315221 5.906258-2.113 9.081.03566069.7984684.55664391 1.4936418 1.313 1.752.76652072.2706179 1.62058002.0536514 2.165-.55.20464401-.219766.42060364-.4287161.647-.626-.23974875 4.668993 1.35793117 9.2463046 4.451 12.752.4257924.4934329 1.0641304.7501841 1.713.689.629114-.0516805 1.1936398-.4065147 1.513-.951.2040223-.3616945.4673529-.6865478.779-.961.627 2.642 3.217 8.868 13.692 9.607.3307606.0238361.6518243-.1178492.8571473-.3782589s.268196-.6056684.1678527-.9217411c-.3138712-1.2218139.100095-2.5154098 1.065-3.328.964323.8142952 1.3783809 2.1081289 1.066 3.331-.0955873.3039477-.0406095.6352532.148027.8920359.1886366.2567828.4883494.4083022.806973.4079641h.07c10.475-.739 13.065-6.965 13.7-9.6.3057404.2703018.5642837.5896788.765.945.318881.5479032.8852304.9055582 1.517.958.6497918.0606828 1.2887877-.1967785 1.715-.691 3.0972771-3.5012005 4.6887504-8.0826603 4.429-12.75.2339133.1884637.4535165.3940283.657.615.5441691.6107368 1.4033165.8323376 2.175.561.7567008-.2554221 1.2797109-.9482717 1.318-1.746.2788862-3.1742471-.4563783-6.3551411-2.1-9.085.153.092.3.191.44.285zm-1.951-1.751c-.6677239.6624768-.7752723 1.704064-.257 2.489 1.4244141 2.3593964 2.051997 5.1144504 1.79 7.858-.2741626-.3004195-.5714023-.5789355-.889-.833-.6075311-.4931665-1.4512754-.5747048-2.142-.207-.7016925.3590821-1.1258271 1.0979857-1.082 1.885.2056733 4.154798-1.2159089 8.226198-3.963 11.35-.31761-.555252-.7278594-1.0520833-1.213-1.469-.5327875-.4400746-1.2544266-.5752721-1.9103841-.3579062-.6559574.2173659-1.1540588.7567512-1.3186159 1.4279062-.5 2.107-2.529 6.94-10.63 7.952.033-2.811-2.525-4.559-2.651-4.643-.3364947-.2250903-.7755053-.2250903-1.112 0-.126.084-2.684 1.832-2.651 4.643-8.1-1.012-10.13-5.845-10.633-7.965-.1685131-.6680128-.6677254-1.2029971-1.3224981-1.4172643-.6547728-.2142671-1.373678-.0778982-1.9045019.3612643-.4781241.4121998-.8837477.9016523-1.2 1.448-2.75462985-3.1117393-4.18146303-7.1783036-3.975-11.329.04397138-.7873057-.38014762-1.5265741-1.082-1.886-.68828174-.3681506-1.52993978-.2894174-2.138.2-.32967424.2618685-.63431575.5537887-.91.872-.25379512-2.7555488.3789339-5.5201471 1.806-7.891.50483657-.7849381.39968865-1.8146869-.25337553-2.4813915-.65306417-.6667046-1.68041971-.7931136-2.47562447-.3046085-.183.11-.358.227-.525.34l-.093.074c.25957583-3.4877719 1.18027525-6.8943258 2.713-10.038.64114999.768174 1.38086904 1.4483792 2.2 2.023.29188599.2061422.67157534.2409062.99604275.0911967.32446742-.1497096.54441858-.4611482.577-.817.03258143-.3558518-.12715676-.7020545-.41904275-.9081967-5.426-3.834-4.4-10.955-3.237-15.014 1.22056204 2.48669716 3.15041915 4.55609136 5.546 5.947l.017.01c1.3811712.72508197 2.9190887 1.1003764 4.479 1.093.5522847 0 1-.44771525 1-1s-.4477153-1-1-1c-.7239534-.0007655-1.4440192-.10584526-2.138-.312 10.095814-7.8727794 24.2509782-7.875664 34.35-.007-.7042519.21157341-1.4356538.31904333-2.171.319-.5522847 0-1 .44771525-1 1s.4477153 1 1 1c5.474 0 8.607-4.319 10.043-7.051 1.161 4.046 2.194 11.178-3.237 15.015-.291886.2061422-.4516242.5523449-.4190428.9081967.0325815.3558518.2525326.6672904.577.817.3244675.1497095.7041568.1149455.9960428-.0911967.8277158-.5829426 1.5739646-1.2737021 2.219-2.054 1.543164 3.1465581 2.4685445 6.5598749 2.726 10.055l-.085-.056c-.167-.113-.342-.23-.513-.332-.7906496-.5090269-1.8306588-.3893317-2.485.286z"/></g></g></svg>